<?xml version="1.0" encoding="utf-8"?>
<!-- Generator: Adobe Illustrator 26.5.0, SVG Export Plug-In . SVG Version: 6.00 Build 0)  -->
<svg version="1.1" id="Layer_1" xmlns="http://www.w3.org/2000/svg" xmlns:xlink="http://www.w3.org/1999/xlink" x="0px" y="0px"
	 viewBox="0 0 1833.9 1528.9" style="enable-background:new 0 0 1833.9 1528.9;" xml:space="preserve">
<style type="text/css">
	.st0{fill-rule:evenodd;clip-rule:evenodd;fill:#FFFFFF;}
	.st1{fill-rule:evenodd;clip-rule:evenodd;}
	.st2{fill:#FFFFFF;stroke:#000000;stroke-miterlimit:10;}
	.st3{fill-rule:evenodd;clip-rule:evenodd;fill:#BF1000;}
	.st4{fill:#BF1000;}
	.st5{fill:#FFFFFF;}
</style>
<path class="st0" d="M0,0h1833.9v1528.9H0V0z"/>
<path class="st1" d="M913.1,67.4c76.8,147.9,394.1,264.6,662,108.1v971.5c0,152.2-151.8,175-232.1,175
	c-279.8,0-383.9,96.7-431.7,139.4c-47.8-42.7-148.5-139.4-428.3-139.4c-80.2,0-232.1-22.8-232.1-175V175.6
	C519,332,836.3,215.4,913.1,67.4L913.1,67.4z"/>
<path class="st0" d="M291.6,314H338l14.3-36.5l14.3,36.5h46.3l-37.5,22.7l14.3,36.7l-37.5-22.7l-37.3,22.6l14.3-36.5L291.6,314
	L291.6,314L291.6,314z M450.3,314h46.4l14.3-36.5l14.3,36.5h46.3L534,336.6l14.3,36.7l-37.5-22.7l-37.3,22.6l14.3-36.5L450.3,314
	L450.3,314z"/>
<path class="st0" d="M450.3,314h46.4l14.3-36.5l14.3,36.5h46.3L534,336.6l14.3,36.7l-37.5-22.7l-37.3,22.6l14.3-36.5L450.3,314
	L450.3,314z M608.9,314h46.4l14.3-36.5l14.3,36.5h46.3l-37.5,22.7l14.3,36.7l-37.5-22.7l-37.3,22.6l14.3-36.5L608.9,314L608.9,314z
	 M291.6,437.7H338l14.3-36.5l14.3,36.5h46.3l-37.5,22.7l14.3,36.7l-37.5-22.7L314.9,497l14.3-36.5L291.6,437.7L291.6,437.7
	L291.6,437.7z M450.3,437.7h46.4l14.3-36.5l14.3,36.5h46.3L534,460.4l14.3,36.7l-37.5-22.7L473.6,497l14.3-36.5L450.3,437.7
	L450.3,437.7L450.3,437.7z"/>
<path class="st0" d="M450.3,437.7h46.4l14.3-36.5l14.3,36.5h46.3L534,460.4l14.3,36.7l-37.5-22.7L473.6,497l14.3-36.5L450.3,437.7
	L450.3,437.7L450.3,437.7z M291.6,560.1H338l14.3-36.5l14.3,36.5h46.3l-37.5,22.7l14.3,36.7l-37.5-22.7l-37.3,22.6l14.3-36.5
	L291.6,560.1L291.6,560.1L291.6,560.1z M450.3,560.1h46.4l14.3-36.5l14.3,36.5h46.3L534,582.7l14.3,36.7l-37.5-22.7l-37.3,22.6
	l14.3-36.5L450.3,560.1L450.3,560.1z"/>
<path class="st0" d="M450,560.7h46.4l14.3-36.5l14.3,36.5h46.3l-37.5,22.7l14.3,36.7l-37.5-22.7l-37.3,22.6l14.3-36.5L450,560.7
	L450,560.7z M1510.1,654.1v480.8c0,103.8-66.5,133.7-187.7,133.7c-235.4,1.4-353.2,69.7-409.5,113.8
	c-56.3-44.1-174-112.4-409.5-113.8c-121.1,0-187.7-29.9-187.7-133.7V654.1L1510.1,654.1L1510.1,654.1z M1534.4,314.6H1488
	l-14.3-36.5l-14.2,36.5h-46.3l37.5,22.7l-14.3,36.7l37.5-22.7l37.3,22.6l-14.3-36.5L1534.4,314.6L1534.4,314.6z M1375.7,314.6h-46.4
	l-14.3-36.5l-14.2,36.5h-46.3l37.5,22.7l-14.3,36.7l37.5-22.7l37.3,22.6l-14.3-36.5L1375.7,314.6L1375.7,314.6L1375.7,314.6z"/>
<path class="st0" d="M1375.9,314h-46.4l-14.3-36.5L1301,314h-46.3l37.5,22.7l-14.3,36.7l37.5-22.7l37.3,22.6l-14.3-36.5L1375.9,314
	L1375.9,314L1375.9,314z M1534.6,437.7h-46.4l-14.3-36.5l-14.2,36.5h-46.3l37.5,22.7l-14.3,36.7l37.5-22.7l37.3,22.6l-14.3-36.5
	L1534.6,437.7L1534.6,437.7L1534.6,437.7z M1375.9,437.7h-46.4l-14.3-36.5l-14.2,36.5h-46.3l37.5,22.7l-14.3,36.7l37.5-22.7
	l37.3,22.6l-14.3-36.5L1375.9,437.7L1375.9,437.7L1375.9,437.7z"/>
<path class="st0" d="M1375.9,437.7h-46.4l-14.3-36.5l-14.2,36.5h-46.3l37.5,22.7l-14.3,36.7l37.5-22.7l37.3,22.6l-14.3-36.5
	L1375.9,437.7L1375.9,437.7L1375.9,437.7z M1534.6,560.1h-46.4l-14.3-36.5l-14.2,36.5h-46.3l37.5,22.7l-14.3,36.7l37.5-22.7
	l37.3,22.6l-14.3-36.5L1534.6,560.1L1534.6,560.1z M1375.9,560.1h-46.4l-14.3-36.5l-14.2,36.5h-46.3l37.5,22.7l-14.3,36.7l37.5-22.7
	l37.3,22.6l-14.3-36.5L1375.9,560.1L1375.9,560.1L1375.9,560.1z"/>
<path class="st0" d="M1375.9,560.1h-46.4l-14.3-36.5l-14.2,36.5h-46.3l37.5,22.7l-14.3,36.7l37.5-22.7l37.3,22.6l-14.3-36.5
	L1375.9,560.1L1375.9,560.1L1375.9,560.1z M1217.2,560.1h-46.4l-14.3-36.5l-14.3,36.5H1096l37.5,22.7l-14.3,36.7l37.5-22.7
	l37.3,22.6l-14.3-36.5L1217.2,560.1L1217.2,560.1z M856.3,191.7h46.4l14.3-36.5l14.3,36.5h46.3l-37.5,22.7l14.3,36.7l-37.5-22.7
	l-37.3,22.6l14.3-36.5L856.3,191.7L856.3,191.7L856.3,191.7z"/>
<path class="st2" d="M1050.2,349.4c11.2,4.3,20.7,11,28.1,20.2c12.8,16,18.1,34.2,14.8,54.7c-3.1,19.4-12.8,34.9-29,45.6
	c-8.6,5.7-18.1,9.9-27.4,14.5c-14.8,7.3-29.6,14.4-44.5,21.5c-13.6,6.6-27.2,13.1-40.8,19.6c-14.6,7-29.2,14.1-43.8,21.1
	c-13.5,6.5-26.9,13-40.4,19.5c-19.5,9.4-39,18.8-58.5,28.2c-9.6,4.6-19.1,9.3-28.7,13.8c-5.7,2.6-11.7,2.9-17.7,1.3
	c-8-2-14.4-6.5-18.4-13.8c-5.5-10-5.6-20,0.2-30c4.1-7,11-11.3,16.8-16.6c8.8-7.9,18-15.4,27-23.1c6.6-5.7,13.1-11.4,19.7-17
	c8-6.9,16.1-13.7,24.1-20.6c5.4-4.6,10.7-9.3,16-13.9c6.5-5.6,13.1-11.1,19.7-16.7c6.7-5.7,13.2-11.5,19.9-17.2
	c7.6-6.5,15.3-12.9,23-19.5c6.7-5.8,13.3-11.6,20.1-17.4c9-7.7,18-15.3,27-23c8.6-7.3,17.2-14.7,26-21.8
	c12.2-9.8,26.4-14.3,45.2-14.3C1034,344.7,1042.2,346.4,1050.2,349.4L1050.2,349.4z M993.2,376.2c-10.3,8.8-20.6,17.5-30.9,26.3
	c-12.7,10.8-25.4,21.6-38.1,32.5c-10.1,8.6-20.1,17.4-30.2,26c-11,9.5-22,19-33.1,28.5c-8.3,7.1-16.5,14.2-24.8,21.2
	c-10.3,8.8-20.7,17.6-31,26.4c-7.7,6.6-15.4,13.3-23,19.9c-6.6,5.7-13.2,11.3-19.7,17.1c-3.6,3.2-3.9,8.1-1.4,12.1
	c2.4,3.8,7.8,6,13,3.3c5.2-2.6,10.4-5,15.6-7.5c22.2-10.7,44.4-21.5,66.7-32.2c13.7-6.6,27.4-13.2,41.1-19.8
	c23.9-11.5,47.8-23,71.8-34.6c14.3-6.9,28.5-13.7,42.8-20.6c11.6-5.6,23.3-11.2,34.9-17c14.3-7.1,23.5-18.5,26.8-34.1
	c3.1-14.9-0.1-28.6-9.6-40.7c-7.7-9.8-17.8-15.6-29.9-18c-2.8-0.6-5.8-0.6-7.3-0.8C1013.1,364.4,1002.5,368.3,993.2,376.2
	L993.2,376.2z"/>
<path class="st2" d="M850,322.8c-28.7-0.1-51.8,22.4-51.9,50.7c-0.2,29.1,22.6,53,50.5,53.1c29.5,0.1,53.1-22.7,53.5-51.1
	C902.4,345.5,878.8,322.1,850,322.8L850,322.8z"/>
<path class="st0" d="M608.9,437.7h46.4l14.3-36.5l14.3,36.5h46.3l-37.5,22.7l14.3,36.7l-37.5-22.7L632.3,497l14.3-36.5L608.9,437.7
	L608.9,437.7L608.9,437.7z M450.3,560.1h46.4l14.3-36.5l14.3,36.5h46.3L534,582.7l14.3,36.7l-37.5-22.7l-37.3,22.6l14.3-36.5
	L450.3,560.1L450.3,560.1L450.3,560.1z M608.9,560.1h46.4l14.3-36.5l14.3,36.5h46.3l-37.5,22.7l14.3,36.7l-37.5-22.7l-37.3,22.6
	l14.3-36.5L608.9,560.1L608.9,560.1z"/>
<path class="st0" d="M1217.2,315.4h-46.4l-14.3-36.5l-14.2,36.5H1096l37.5,22.7l-14.3,36.7l37.5-22.7l37.3,22.6l-14.3-36.5
	L1217.2,315.4L1217.2,315.4L1217.2,315.4z M1375.9,437.7h-46.4l-14.3-36.5l-14.2,36.5h-46.3l37.5,22.7l-14.3,36.7l37.5-22.7
	l37.3,22.6l-14.3-36.5L1375.9,437.7L1375.9,437.7z M1217.2,437.7h-46.4l-14.3-36.5l-14.2,36.5H1096l37.5,22.7l-14.3,36.7l37.5-22.7
	l37.3,22.6l-14.3-36.5L1217.2,437.7L1217.2,437.7L1217.2,437.7z"/>
<path class="st3" d="M1050,1167.9c1.5,18.5,0.9,33.8,0,44.6c-0.4,4.8-2.5,15-6.4,35.3c-3.6,18.6-6,21.9-7.4,24
	c-4,6.3-8.1,8.6-8.2,14c0,4.7,3,9.4,6.6,11.2c2.9,1.4,6.1,1,14-3.5c8.7-4.8,12.2-8.3,21.8-15.2c7.4-5.3,13.4-9.1,17.7-11.8
	c2-1.2,7.7-4.8,15.5-9.1c7.6-4.2,11.3-6.3,13.3-6.9c11.9-3.6,17.3,2.6,21.5-2.4c4.2-5.1,4.3-16.2,0.3-21.2c-3.2-4.1-7.1-2-11.6-6.4
	c-3.8-3.7-5.1-9.3-5.6-13.2c-0.2-7.5-0.4-14.9-0.6-22.4V953.7h52.9c12.8,0,25.6,4.2,29.7,30.8c3.5,17.5,23.8,20.3,23.8,1.4V845.2
	c0-15.4-22.7-14-25.6,1.4c-2.9,15.4-3.5,42.7-20.9,42.7H1121V747.9h65.1c9.9,0,19.8,4.2,25.6,14c5.8,9.8,23.9,35.7,36.1,29.4
	c5.8-2.8,8.7-9.8,5.8-23.1l-27.3-88.9h-187.8c-11.6,0-17.5,4.9-18.6,11.2c-1.2,6.3,2.3,18.2,10.5,23.1c8.1,4.9,19.8,14.7,19.8,37.1
	L1050,1167.9L1050,1167.9z"/>
<path class="st3" d="M1595.7,1379.2l-13,46.3h-0.1l-13.1-46.3h-8.9v54.8h6v-32.4c0-1.6-0.1-8.5-0.1-13.6h0.1l12.9,45.9h6.1l12.9-46
	h0.1c0,5.1-0.1,12.1-0.1,13.7v32.4h6v-54.8H1595.7z M1518,1379.2v6.6h15.5v48.3h6.2v-48.3h15.5v-6.6H1518z M1426.4,941.4
	c-36.2-0.7-53.9,21.3-57,52.9c-3.1,31.6,18.4,78.6,64.3,69.7c12.9-2.9,15.9,2.2,15.9,14.7s-3.7,88.1-63.7,88.1
	c-9.8,0-24.5,0.7-31.2,0.7v-403c0-19.1,19-45.5,31.9-55.8c9.8-7.3,9.2-29.4-2.5-29.4h-131.1c-8.6,0-17.2,11.7-4.9,27.2
	s31.8,27.2,31.8,60.9v361.9c0,10.3,0,35.2-12.2,47s-42.3,45.5-29.4,66.1c4.9,8.1,18.4,5.9,35.5-1.5c17.2-7.3,67.4-9.6,85.8-8.8
	c18.4,0.7,105.4,19.8,139.7-103.5C1522,1043.5,1490.1,942.9,1426.4,941.4L1426.4,941.4z"/>
<path class="st3" d="M992.1,719.1c-21.5,15.4-22,28.3-22,42.8v501.8c0,14.6-2.5,32.3-19.6,39.6c-17.2,7.3-40.4-16.2-47.8-40.4
	L797.3,900.1v282.8c0,13.3,2.3,23.9,6.1,32.9c8.4,19.9,10,29.9,10,29.9c5,10,4.2,14.2,6,21.7c2.1,8.4,1.8,10.7,1.7,11.7
	c-0.2,1.2-0.9,6.3-4,9c-3.1,2.7-8.7,3.2-23.3-2.3c-14.6-5.4-24.9-11.6-44.1-23.9c-5.3-3.4-10.5-6.8-16.4-11c-3.3-2.4-3-2.2-6.3-4.6
	c-13.5-9.8-16.9-10.5-21.1-15.3c-2.3-2.7-5.3-7-7.1-13.8c0.6-6,1.2-12,1.8-18c2.1-3.9,5.8-9.2,12-12.5c6.5-3.4,11.4-2.2,15.2-3.3
	c6.8-2.1,13.8-13.1,14.4-52.1V770.8c0-29.9-14.7-41.2-24.5-46.9c-9.8-5.7-11.3-19.5-9.8-28.3c1.8-10.5,11-16.2,20.2-16.2H793
	c12.9,0,24.5,19.4,31.2,41.2l82.1,282V769.2c0-26.7-25.1-42.8-37.4-55.8c-12.3-12.9-3.7-33.9,9.2-33.9h109.6
	C1007.4,679.5,1003.1,712.7,992.1,719.1L992.1,719.1z"/>
<path class="st3" d="M358.5,1115.9c0,8.2,0,27.8-11.5,34.1c-11.5,6.3-13.8,14.5-12.6,19.6c1.1,5.1,6.3,10.7,15.5,13.9
	s26.4,9.5,77.5,50.5c9.2,6.3,18.4,2.5,21.2-1.3c2.9-3.8,4-14.5-3.4-24c-8.1-10.3-16.6-26.5-16.6-50.5V922.6h52.2
	c13.5-3.5,42.8-13.6,63.5-43.4c28.2-40.4,32.4-105.5,7.4-128.6c-6.4-5.9-20.3,3-36.2-6.3c-2.9-1.7-5.3-3.5-7-2.4
	c-4.1,2.8,4.8,18.4,5.7,41.9c0.4,10.7-1.7,21.2-5.9,42.2c-2,10.2-3.7,16.1-7.2,22.4c-4.4,7.9-9.7,13-13.5,16.1
	c-4.7,2-11.8,4.5-20.6,6.1c-7.9,1.5-12.9,2.3-19.5,0.8c-3.3-0.7-11.3-2.5-16.2-9.5c-1.5-2.1-2.3-4.1-2.8-5.5
	c-5.5-44.3-1.9-76.9,0-97.8c0.4-4,2.1-17.7,11.9-26c12.7-10.8,34.3-8.7,50.3,7.7c12.5,14.5,17.4,17.4,19.2,16.1
	c1.4-1,0.8-4.5,3.3-6.3c0.5-0.4,2-1.1,4.9-0.7c5.1,0.8,21.8,6.5,43.8,15c-1.3-9-4.6-23.5-13.7-39.1c-9.1-15.8-20.2-25.9-27.4-31.5
	c-8.2-4.6-15.6-7.9-21.5-10.1c-5.6-2.2-14.4-5.5-26.5-7.6c-4.1-0.7-7.6-1.1-10.1-1.3c0,0-52.1-3.3-115.7,0
	c-9,0.5-17.2,4.1-18.4,10.1c-1.1,5.7,2.3,16.4,10.3,20.8c8,4.4,19.5,13.3,19.5,33.5V1115.9L358.5,1115.9z"/>
<rect x="510.8" y="734.2" class="st4" width="35" height="24.9"/>
<rect x="506.4" y="739.6" width="11.4" height="15.7"/>
<rect x="508.8" y="754.7" width="6.1" height="2.2"/>
<rect x="542.6" y="743.2" class="st4" width="10.6" height="19.5"/>
<rect x="555.4" y="761.8" width="2.4" height="6.2"/>
<path class="st3" d="M559.6,753.4l6.2,27.1c0.3,1.1-0.7,2.4-2.1,2.8l-8.1,2.4c-1.4,0.4-2.8-0.2-3-1.3l-6.2-27.1
	c-0.3-1.1,0.7-2.4,2.1-2.8l8.1-2.4C557.9,751.7,559.3,752.3,559.6,753.4z"/>
<rect x="551.5" y="751.4" class="st4" width="3.8" height="5.1"/>
<path class="st3" d="M512.7,774.2L496.3,745c-0.6-1.1-0.3-2.6,0.7-3.3l4.3-2.9c1-0.7,2.3-0.3,3,0.8l16.4,29.2
	c0.6,1.1,0.3,2.6-0.7,3.3l-4.3,2.9C514.7,775.6,513.3,775.3,512.7,774.2z"/>
<rect x="510.7" y="755.3" width="1.4" height="0.5"/>
<path class="st3" d="M517.2,791.2L506.4,759c-0.4-1.2,0.2-2.6,1.3-3.1l4.7-1.9c1.1-0.5,2.3,0.2,2.8,1.4l10.8,32.2
	c0.4,1.2-0.2,2.6-1.3,3.1l-4.7,1.9C518.8,793.1,517.6,792.5,517.2,791.2L517.2,791.2z"/>
<rect x="429.2" y="726.2" class="st5" width="4.4" height="144.3"/>
<rect x="433.7" y="714" class="st4" width="84.4" height="168.4"/>
<path class="st5" d="M435.4,725.2h17c32.3,0,58.5,26.2,58.5,58.5v28.3c0,32.3-26.2,58.5-58.5,58.5h-17c-32.3,0-58.5-26.2-58.5-58.5
	v-28.3C376.8,751.4,403,725.2,435.4,725.2z"/>
<rect x="361.9" y="710.2" class="st4" width="68.3" height="168.4"/>
<path class="st3" d="M648.8,1050.8V761.5c0-18.4,14.7-43.9,24.7-53.8c7.6-7.1,7.1-28.3-1.9-28.3H569.8c-6.7,0-13.3,11.3-3.8,26.2
	s24.7,26.2,24.7,58.7v284.3L648.8,1050.8L648.8,1050.8z"/>
<path class="st3" d="M590.8,855v284.3c0,32.6-15.2,43.9-24.7,58.7c-9.5,14.9-2.9,26.2,3.8,26.2c30.7,10.7,61.3,21.5,92,32.2
	c5.9-1.8,13.2-5.2,15.2-12.4c3.2-11.3-9.2-23-17.9-42.4c-5.5-12.4-11.1-31.3-10.3-59.4V852.9L590.8,855L590.8,855z"/>
<path class="st5" d="M718.9,1115.4l130.4,13.9c6.6,0.7,11.4,6.6,10.7,13.2L844.5,1287c-0.7,6.6-6.6,11.4-13.2,10.7L701,1283.8
	c-6.6-0.7-11.4-6.6-10.7-13.2l15.4-144.5C706.4,1119.5,712.3,1114.7,718.9,1115.4z"/>
<path class="st3" d="M742.6,880.6v284.3c0,32.6-14.3,43.9-23.3,58.7c-9,14.9-2.7,26.2,3.6,26.2c28.9,10.7,57.8,21.5,86.7,32.2
	c5.5-1.8,12.4-5.2,14.3-12.4c3-11.3-8.7-23-16.9-42.4c-5.2-12.4-10.4-31.3-9.7-59.4V878.5L742.6,880.6L742.6,880.6z"/>
<path class="st5" d="M989.1,1142.1l126.5-34.6c6.4-1.7,13,2,14.7,8.4l38.3,140.2c1.7,6.4-2,13-8.4,14.7l-126.5,34.6
	c-6.4,1.7-13-2-14.7-8.4l-38.3-140.2C979,1150.4,982.7,1143.8,989.1,1142.1z"/>
<path class="st3" d="M1049.9,880.6v289.3c1,28.2-5.8,47.1-12.6,59.4c-10.7,19.4-26,31.1-22,42.4c2.5,7.2,11.4,10.6,18.6,12.4
	c37.6-10.7,75.3-21.5,112.9-32.2c8.2,0,16.3-11.3,4.7-26.2c-11.7-14.9-30.3-26.2-30.3-58.7V882.8L1049.9,880.6L1049.9,880.6z"/>
<path class="st5" d="M324.9,1154.3l42-42c4.7-4.7,12.3-4.7,17,0l86.8,86.8c4.7,4.7,4.7,12.3,0,17l-42,42c-4.7,4.7-12.3,4.7-17,0
	l-86.8-86.8C320.2,1166.6,320.2,1159,324.9,1154.3z"/>
<path class="st3" d="M358.8,822.7V1107c0.1,6.1-0.5,15.1-4.5,24.8c-9,21.9-27.2,27.8-26.9,42c0.1,4.7,2.2,11.6,12.3,19.8
	c34.8,10.2,69.6,20.3,104.4,30.5c7-1.8,15.8-5.2,18.2-12.4c3.8-11.3-11.1-23-21.5-42.4c-6.7-12.4-13.3-31.3-12.3-59.4V820.5
	L358.8,822.7L358.8,822.7z"/>
</svg>
